<svg width="120" height="40" viewBox="0 0 120 40" fill="none" xmlns="http://www.w3.org/2000/svg">
<g clip-path="url(#clip0_831_354)">
<path d="M110.444 7.92969e-06H9.56145C9.19372 7.92969e-06 8.8304 7.92975e-06 8.46364 0.00200793C8.15663 0.00400793 7.85207 0.00981793 7.54211 0.0147079C6.86874 0.0226097 6.19695 0.0816842 5.53259 0.191418C4.86915 0.303541 4.2265 0.514924 3.62637 0.818418C3.02697 1.12448 2.47929 1.52218 2.00318 1.99708C1.52457 2.47064 1.12561 3.01802 0.82165 3.61817C0.516847 4.21712 0.305496 4.85895 0.194896 5.52149C0.083244 6.18319 0.0231632 6.85253 0.0151925 7.52349C0.00588648 7.83009 0.00490373 8.13771 0 8.44435V31.5586C0.00490373 31.8691 0.00588648 32.1699 0.0151925 32.4805C0.0231657 33.1514 0.0832464 33.8207 0.194896 34.4824C0.30519 35.1453 0.516554 35.7875 0.82165 36.3867C1.12548 36.9849 1.52449 37.5301 2.00318 38.001C2.47748 38.478 3.02552 38.876 3.62637 39.1797C4.2265 39.484 4.86908 39.6967 5.53259 39.8105C6.19707 39.9194 6.86879 39.9785 7.54211 39.9873C7.85207 39.9941 8.15663 39.998 8.46364 39.998C8.83039 40 9.19374 40 9.56145 40H110.444C110.804 40 111.171 40 111.531 39.998C111.837 39.998 112.15 39.9941 112.455 39.9873C113.128 39.9789 113.798 39.9198 114.461 39.8105C115.127 39.6959 115.772 39.4833 116.375 39.1797C116.975 38.8758 117.522 38.4779 117.996 38.001C118.474 37.5282 118.874 36.9835 119.181 36.3867C119.484 35.7871 119.693 35.145 119.802 34.4824C119.914 33.8206 119.976 33.1515 119.988 32.4805C119.992 32.1699 119.992 31.8691 119.992 31.5586C120 31.1953 120 30.834 120 30.4648V9.53614C120 9.16993 120 8.80665 119.992 8.44435C119.992 8.13771 119.992 7.83009 119.988 7.52345C119.976 6.85243 119.914 6.18324 119.802 5.52145C119.693 4.85929 119.484 4.21751 119.181 3.61813C118.562 2.4152 117.581 1.43603 116.375 0.818328C115.772 0.515575 115.127 0.304248 114.461 0.191328C113.798 0.0811107 113.128 0.0220157 112.455 0.0145679C112.15 0.00968793 111.837 0.00382793 111.531 0.00187793C111.171 -0.00012207 110.804 -0.00012207 110.444 -0.00012207V7.92969e-06Z" fill="#A6A6A6"/>
<path d="M8.46067 39.125C8.15514 39.125 7.85698 39.1211 7.55385 39.1143C6.92587 39.1061 6.29936 39.0516 5.67946 38.9512C5.10143 38.8519 4.54148 38.6672 4.01807 38.4033C3.49946 38.1415 3.02644 37.7982 2.61715 37.3867C2.20193 36.9799 1.85623 36.5082 1.59377 35.9902C1.32842 35.4688 1.14478 34.9099 1.04925 34.333C0.946084 33.7131 0.890267 33.0863 0.882281 32.458C0.875923 32.2471 0.867599 31.5449 0.867599 31.5449V8.44431C0.867599 8.44431 0.876464 7.7529 0.882331 7.54977C0.889978 6.92245 0.94547 6.29662 1.04833 5.6777C1.14403 5.09922 1.32781 4.53872 1.59331 4.0156C1.85481 3.49791 2.19858 3.02583 2.6113 2.61765C3.02356 2.20559 3.49808 1.86057 4.01758 1.59518C4.53978 1.33206 5.09868 1.1487 5.67554 1.05124C6.29748 0.949806 6.92616 0.894966 7.55631 0.887179L8.46117 0.874969H111.518L112.434 0.88767C113.058 0.895069 113.681 0.949419 114.297 1.05026C114.88 1.14894 115.445 1.33359 115.973 1.59811C117.014 2.13296 117.861 2.97913 118.395 4.01804C118.656 4.53755 118.837 5.09348 118.932 5.66696C119.036 6.29096 119.094 6.92171 119.106 7.55417C119.109 7.83737 119.109 8.14157 119.109 8.44431C119.117 8.81931 119.117 9.17624 119.117 9.5361V30.4648C119.117 30.8281 119.117 31.1826 119.109 31.54C119.109 31.8652 119.109 32.1631 119.105 32.4697C119.093 33.0908 119.036 33.7103 118.933 34.3232C118.84 34.9042 118.657 35.4675 118.392 35.9932C118.128 36.5056 117.784 36.9732 117.373 37.3789C116.964 37.7927 116.49 38.1379 115.97 38.4014C115.443 38.6674 114.88 38.8527 114.297 38.9512C113.678 39.0521 113.051 39.1067 112.423 39.1143C112.129 39.1211 111.822 39.125 111.523 39.125L110.436 39.127L8.46067 39.125Z" fill="#1C241A"/>
<path d="M24.8359 20.3007C24.8467 19.466 25.069 18.6477 25.4822 17.9217C25.8954 17.1957 26.486 16.5858 27.1991 16.1486C26.7461 15.5035 26.1485 14.9725 25.4537 14.598C24.7589 14.2234 23.9861 14.0156 23.1967 13.991C21.5128 13.8147 19.8803 14.9958 19.0221 14.9958C18.1474 14.9958 16.8262 14.0085 15.4035 14.0376C14.4833 14.0673 13.5864 14.3341 12.8003 14.8122C12.0143 15.2903 11.3658 15.9632 10.918 16.7655C8.97861 20.1139 10.4253 25.035 12.2831 27.7416C13.2126 29.0669 14.2989 30.5474 15.7203 30.4949C17.1113 30.4374 17.6308 29.6104 19.3098 29.6104C20.9732 29.6104 21.4606 30.4949 22.9108 30.4615C24.4034 30.4374 25.3438 29.1303 26.2407 27.7924C26.9085 26.848 27.4224 25.8043 27.7634 24.6999C26.8962 24.3341 26.1562 23.722 25.6357 22.9397C25.1151 22.1574 24.8369 21.2396 24.8359 20.3007Z" fill="white"/>
<path d="M22.0893 12.2109C22.9032 11.2367 23.3041 9.98451 23.207 8.72028C21.9637 8.8505 20.8152 9.44306 19.9904 10.3799C19.5871 10.8376 19.2783 11.37 19.0815 11.9468C18.8847 12.5235 18.8038 13.1333 18.8435 13.7413C19.4654 13.7477 20.0806 13.6132 20.6428 13.3482C21.2051 13.0831 21.6997 12.6942 22.0893 12.2109Z" fill="white"/>
<path d="M42.4125 27.1396H37.6658L36.5259 30.4961H34.5154L39.0114 18.0781H41.1002L45.5962 30.4961H43.5514L42.4125 27.1396ZM38.1574 25.5908H41.92L40.0652 20.1435H40.0133L38.1574 25.5908Z" fill="white"/>
<path d="M55.3104 25.9697C55.3104 28.7832 53.8004 30.5908 51.5215 30.5908C50.9442 30.6209 50.3701 30.4883 49.8649 30.2082C49.3597 29.9281 48.9438 29.5117 48.6649 29.0068H48.6218V33.4912H46.7581V21.4424H48.5621V22.9482H48.5963C48.8881 22.4458 49.311 22.0316 49.8201 21.7497C50.3291 21.4679 50.9053 21.3289 51.4872 21.3476C53.7915 21.3477 55.3104 23.1641 55.3104 25.9697ZM53.3949 25.9697C53.3949 24.1367 52.445 22.9316 50.9956 22.9316C49.5717 22.9316 48.614 24.1621 48.614 25.9697C48.614 27.7939 49.5717 29.0156 50.9956 29.0156C52.445 29.0156 53.3949 27.8193 53.3949 25.9697Z" fill="white"/>
<path d="M65.3038 25.9697C65.3038 28.7832 63.7938 30.5908 61.5149 30.5908C60.9377 30.621 60.3635 30.4883 59.8583 30.2082C59.3531 29.9281 58.9372 29.5117 58.6583 29.0068H58.6152V33.4912H56.7516V21.4424H58.5554V22.9483H58.5897C58.8815 22.4458 59.3044 22.0316 59.8134 21.7498C60.3225 21.4679 60.8987 21.329 61.4806 21.3477C63.7849 21.3477 65.3038 23.1641 65.3038 25.9697ZM63.3883 25.9697C63.3883 24.1367 62.4384 22.9317 60.989 22.9317C59.5651 22.9317 58.6074 24.1621 58.6074 25.9697C58.6074 27.794 59.5651 29.0156 60.989 29.0156C62.4384 29.0156 63.3883 27.8194 63.3883 25.9697H63.3883Z" fill="white"/>
<path d="M71.8981 27.0361C72.0362 28.2676 73.2359 29.0761 74.8752 29.0761C76.446 29.0761 77.5761 28.2675 77.5761 27.1572C77.5761 26.1933 76.8945 25.6162 75.2806 25.2207L73.6668 24.833C71.3801 24.2822 70.3185 23.2158 70.3185 21.4853C70.3185 19.3427 72.191 17.871 74.8498 17.871C77.4811 17.871 79.285 19.3427 79.3457 21.4853H77.4645C77.3519 20.246 76.3246 19.498 74.8233 19.498C73.322 19.498 72.2947 20.2548 72.2947 21.3564C72.2947 22.2343 72.9509 22.7509 74.5559 23.1464L75.9279 23.4823C78.4829 24.0849 79.5445 25.1083 79.5445 26.9247C79.5445 29.248 77.6887 30.703 74.7371 30.703C71.9755 30.703 70.1109 29.2821 69.9904 27.036L71.8981 27.0361Z" fill="white"/>
<path d="M83.578 19.2998V21.4424H85.3045V22.9141H83.578V27.9053C83.578 28.6807 83.9237 29.042 84.6827 29.042C84.8876 29.0384 85.0923 29.0241 85.2957 28.999V30.4619C84.9545 30.5255 84.6077 30.5543 84.2606 30.5478C82.4224 30.5478 81.7056 29.8593 81.7056 28.1035V22.9141H80.3855V21.4424H81.7056V19.2998H83.578Z" fill="white"/>
<path d="M86.298 25.9697C86.298 23.1211 87.9804 21.3311 90.604 21.3311C93.2363 21.3311 94.911 23.1211 94.911 25.9697C94.911 28.8262 93.2452 30.6084 90.604 30.6084C87.9637 30.6084 86.298 28.8262 86.298 25.9697ZM93.0121 25.9697C93.0121 24.0156 92.1141 22.8623 90.604 22.8623C89.0939 22.8623 88.1968 24.0244 88.1968 25.9697C88.1968 27.9316 89.0939 29.0762 90.604 29.0762C92.1141 29.0762 93.012 27.9316 93.012 25.9697H93.0121Z" fill="white"/>
<path d="M96.4521 21.4424H98.2295V22.9834H98.2726C98.3929 22.5021 98.6756 22.0768 99.0733 21.7789C99.471 21.481 99.9594 21.3287 100.456 21.3476C100.671 21.3469 100.885 21.3702 101.095 21.417V23.1553C100.824 23.0726 100.541 23.0347 100.258 23.043C99.9869 23.032 99.717 23.0796 99.4664 23.1825C99.2159 23.2854 98.9906 23.4411 98.8062 23.639C98.6217 23.8369 98.4823 24.0723 98.3976 24.3289C98.313 24.5856 98.285 24.8575 98.3157 25.126V30.4961H96.4521L96.4521 21.4424Z" fill="white"/>
<path d="M109.687 27.8369C109.436 29.4805 107.831 30.6084 105.777 30.6084C103.136 30.6084 101.497 28.8437 101.497 26.0127C101.497 23.1729 103.145 21.3311 105.699 21.3311C108.211 21.3311 109.791 23.0518 109.791 25.7969V26.4336H103.378V26.5459C103.349 26.8791 103.39 27.2148 103.501 27.5306C103.611 27.8464 103.788 28.1352 104.019 28.3778C104.25 28.6203 104.53 28.8111 104.841 28.9374C105.151 29.0637 105.485 29.1226 105.821 29.1103C106.261 29.1515 106.703 29.0498 107.081 28.8203C107.458 28.5909 107.752 28.246 107.917 27.8369L109.687 27.8369ZM103.387 25.1348H107.926C107.943 24.8352 107.897 24.5354 107.792 24.2541C107.687 23.9729 107.525 23.7164 107.316 23.5006C107.107 23.2849 106.855 23.1145 106.577 23.0003C106.299 22.8861 106 22.8305 105.699 22.8369C105.396 22.8351 105.095 22.8933 104.814 23.008C104.533 23.1227 104.278 23.2918 104.063 23.5054C103.848 23.7191 103.678 23.973 103.562 24.2527C103.446 24.5323 103.386 24.8321 103.387 25.1348V25.1348Z" fill="white"/>
<path d="M37.9227 8.73101C38.3134 8.70305 38.7054 8.76191 39.0706 8.90335C39.4357 9.04478 39.7648 9.26526 40.0341 9.54889C40.3035 9.83251 40.5063 10.1722 40.6281 10.5435C40.7498 10.9148 40.7874 11.3083 40.7382 11.6959C40.7382 13.6021 39.705 14.6979 37.9227 14.6979H35.7613V8.73101H37.9227ZM36.6907 13.854H37.8188C38.098 13.8707 38.3774 13.825 38.6367 13.7204C38.896 13.6158 39.1286 13.4548 39.3176 13.2493C39.5066 13.0437 39.6473 12.7987 39.7294 12.5321C39.8115 12.2655 39.8329 11.9839 39.7921 11.708C39.83 11.4332 39.8063 11.1534 39.723 10.8887C39.6396 10.6241 39.4986 10.3811 39.31 10.1771C39.1214 9.97322 38.8899 9.81341 38.6321 9.70917C38.3743 9.60494 38.0966 9.55885 37.8188 9.57422H36.6907V13.854Z" fill="white"/>
<path d="M41.7803 12.4443C41.7519 12.1484 41.7859 11.8499 41.88 11.5678C41.9741 11.2857 42.1263 11.0264 42.3268 10.8064C42.5273 10.5864 42.7717 10.4107 43.0443 10.2904C43.3169 10.1701 43.6117 10.108 43.9098 10.108C44.2079 10.108 44.5027 10.1701 44.7753 10.2904C45.048 10.4107 45.2923 10.5864 45.4929 10.8064C45.6934 11.0264 45.8455 11.2857 45.9396 11.5678C46.0337 11.8499 46.0677 12.1484 46.0393 12.4443C46.0682 12.7406 46.0347 13.0396 45.9408 13.3221C45.847 13.6046 45.6949 13.8644 45.4943 14.0848C45.2938 14.3052 45.0492 14.4814 44.7763 14.6019C44.5034 14.7225 44.2083 14.7847 43.9098 14.7847C43.6113 14.7847 43.3162 14.7225 43.0433 14.6019C42.7704 14.4814 42.5258 14.3052 42.3253 14.0848C42.1247 13.8644 41.9726 13.6046 41.8788 13.3221C41.7849 13.0396 41.7514 12.7406 41.7803 12.4443ZM45.1227 12.4443C45.1227 11.4683 44.683 10.8975 43.9113 10.8975C43.1366 10.8975 42.7009 11.4683 42.7009 12.4444C42.7009 13.4282 43.1367 13.9946 43.9113 13.9946C44.683 13.9946 45.1227 13.4243 45.1227 12.4443H45.1227Z" fill="white"/>
<path d="M51.7046 14.6978H50.7801L49.8468 11.3813H49.7763L48.847 14.6978H47.9313L46.6866 10.1948H47.5905L48.3994 13.6308H48.466L49.3944 10.1948H50.2493L51.1777 13.6308H51.2482L52.0532 10.1948H52.9444L51.7046 14.6978Z" fill="white"/>
<path d="M53.9969 10.1948H54.8548V10.9102H54.9214C55.0343 10.6532 55.2249 10.4379 55.4664 10.2941C55.708 10.1503 55.9885 10.0852 56.2689 10.1079C56.4886 10.0914 56.7092 10.1245 56.9144 10.2046C57.1196 10.2847 57.304 10.4098 57.4541 10.5706C57.6042 10.7315 57.7161 10.9239 57.7815 11.1337C57.8469 11.3436 57.8641 11.5654 57.8319 11.7827V14.6977H56.9407V12.0059C56.9407 11.2822 56.6254 10.9224 55.9663 10.9224C55.8171 10.9155 55.6682 10.9408 55.5298 10.9966C55.3913 11.0524 55.2666 11.1375 55.1642 11.2458C55.0618 11.3542 54.9841 11.4834 54.9364 11.6245C54.8888 11.7657 54.8723 11.9154 54.8881 12.0635V14.6978H53.9969L53.9969 10.1948Z" fill="white"/>
<path d="M59.2507 8.43701H60.1418V14.6978H59.2507V8.43701Z" fill="white"/>
<path d="M61.3815 12.4444C61.3531 12.1484 61.3871 11.8499 61.4812 11.5678C61.5754 11.2857 61.7276 11.0263 61.9281 10.8064C62.1286 10.5864 62.373 10.4106 62.6457 10.2903C62.9183 10.17 63.2131 10.1079 63.5113 10.1079C63.8094 10.1079 64.1042 10.17 64.3768 10.2903C64.6495 10.4106 64.8939 10.5864 65.0944 10.8064C65.2949 11.0263 65.4471 11.2857 65.5413 11.5678C65.6354 11.8499 65.6694 12.1484 65.641 12.4444C65.6699 12.7406 65.6363 13.0396 65.5424 13.3221C65.4485 13.6046 65.2964 13.8645 65.0958 14.0849C64.8953 14.3053 64.6507 14.4814 64.3778 14.6019C64.1049 14.7225 63.8097 14.7847 63.5113 14.7847C63.2128 14.7847 62.9176 14.7225 62.6447 14.6019C62.3718 14.4814 62.1272 14.3053 61.9267 14.0849C61.7261 13.8645 61.574 13.6046 61.4801 13.3221C61.3862 13.0396 61.3526 12.7406 61.3815 12.4444ZM64.7239 12.4444C64.7239 11.4683 64.2842 10.8975 63.5125 10.8975C62.7378 10.8975 62.3021 11.4683 62.3021 12.4444C62.3021 13.4283 62.7379 13.9947 63.5125 13.9947C64.2842 13.9947 64.7239 13.4244 64.7239 12.4444H64.7239Z" fill="white"/>
<path d="M66.577 13.4243C66.577 12.6138 67.1822 12.1465 68.2565 12.0801L69.4797 12.0098V11.6211C69.4797 11.1455 69.1644 10.877 68.5552 10.877C68.0577 10.877 67.713 11.0591 67.6141 11.3775H66.7513C66.8424 10.604 67.572 10.1079 68.5964 10.1079C69.7284 10.1079 70.3669 10.6699 70.3669 11.6211V14.6978H69.5091V14.065H69.4386C69.2954 14.292 69.0945 14.477 68.8562 14.6012C68.6179 14.7254 68.3508 14.7844 68.0822 14.772C67.8927 14.7916 67.7011 14.7715 67.5198 14.7128C67.3385 14.6541 67.1716 14.5581 67.0298 14.4312C66.888 14.3042 66.7744 14.149 66.6964 13.9756C66.6184 13.8022 66.5778 13.6144 66.577 13.4243ZM69.4797 13.0396V12.6631L68.377 12.7334C67.7551 12.7749 67.4731 12.9859 67.4731 13.3828C67.4731 13.7881 67.8256 14.0239 68.3104 14.0239C68.4525 14.0383 68.596 14.024 68.7323 13.9819C68.8687 13.9398 68.9952 13.8708 69.1043 13.7789C69.2134 13.6871 69.3029 13.5743 69.3674 13.4473C69.4318 13.3203 69.47 13.1816 69.4797 13.0396Z" fill="white"/>
<path d="M71.5416 12.4444C71.5416 11.0215 72.2751 10.1201 73.416 10.1201C73.6982 10.1072 73.9783 10.1746 74.2235 10.3145C74.4687 10.4544 74.6689 10.661 74.8007 10.9101H74.8673V8.43701H75.7585V14.6978H74.9045V13.9863H74.834C74.692 14.2338 74.4848 14.4378 74.2349 14.5763C73.9849 14.7148 73.7017 14.7825 73.416 14.772C72.2673 14.772 71.5416 13.8706 71.5416 12.4444ZM72.4622 12.4444C72.4622 13.3994 72.9136 13.9741 73.6687 13.9741C74.4198 13.9741 74.884 13.3911 74.884 12.4483C74.884 11.5098 74.4149 10.9185 73.6687 10.9185C72.9185 10.9185 72.4621 11.4971 72.4621 12.4444H72.4622Z" fill="white"/>
<path d="M79.4404 12.4443C79.412 12.1484 79.4459 11.8499 79.54 11.5678C79.6341 11.2857 79.7863 11.0264 79.9868 10.8064C80.1873 10.5864 80.4317 10.4107 80.7043 10.2904C80.9769 10.1701 81.2717 10.108 81.5699 10.108C81.868 10.108 82.1628 10.1701 82.4354 10.2904C82.708 10.4107 82.9524 10.5864 83.1529 10.8064C83.3534 11.0264 83.5056 11.2857 83.5997 11.5678C83.6938 11.8499 83.7277 12.1484 83.6993 12.4443C83.7283 12.7406 83.6947 13.0396 83.6009 13.3221C83.507 13.6046 83.3549 13.8644 83.1544 14.0848C82.9538 14.3052 82.7092 14.4814 82.4364 14.6019C82.1635 14.7225 81.8683 14.7847 81.5699 14.7847C81.2714 14.7847 80.9762 14.7225 80.7033 14.6019C80.4305 14.4814 80.1859 14.3052 79.9853 14.0848C79.7848 13.8644 79.6327 13.6046 79.5388 13.3221C79.445 13.0396 79.4114 12.7406 79.4404 12.4443ZM82.7827 12.4443C82.7827 11.4683 82.343 10.8975 81.5713 10.8975C80.7967 10.8975 80.3609 11.4683 80.3609 12.4444C80.3609 13.4282 80.7967 13.9946 81.5713 13.9946C82.343 13.9946 82.7827 13.4243 82.7827 12.4443Z" fill="white"/>
<path d="M84.8929 10.1948H85.7508V10.9102H85.8174C85.9304 10.6532 86.1209 10.4379 86.3624 10.2941C86.604 10.1503 86.8845 10.0852 87.1649 10.1079C87.3846 10.0914 87.6052 10.1245 87.8104 10.2046C88.0156 10.2847 88.2001 10.4098 88.3502 10.5706C88.5003 10.7315 88.6122 10.9239 88.6775 11.1337C88.7429 11.3436 88.7601 11.5654 88.7279 11.7827V14.6977H87.8367V12.0059C87.8367 11.2822 87.5214 10.9224 86.8623 10.9224C86.7131 10.9155 86.5642 10.9408 86.4258 10.9966C86.2873 11.0524 86.1626 11.1375 86.0602 11.2458C85.9578 11.3542 85.8801 11.4834 85.8324 11.6245C85.7848 11.7657 85.7683 11.9154 85.7841 12.0635V14.6978H84.8929V10.1948Z" fill="white"/>
<path d="M93.764 9.07373V10.2153H94.7424V10.9639H93.764V13.2793C93.764 13.751 93.9589 13.9575 94.4025 13.9575C94.5161 13.9572 94.6296 13.9503 94.7424 13.937V14.6772C94.5823 14.7058 94.4202 14.721 94.2576 14.7226C93.2665 14.7226 92.8719 14.375 92.8719 13.5068V10.9638H92.155V10.2153H92.8719V9.07373H93.764Z" fill="white"/>
<path d="M95.9628 8.43701H96.8461V10.9185H96.9166C97.0351 10.6591 97.2309 10.4426 97.4773 10.2982C97.7236 10.1539 98.0087 10.0888 98.2935 10.1118C98.5121 10.1 98.7306 10.1364 98.9334 10.2184C99.1363 10.3004 99.3185 10.4261 99.467 10.5864C99.6155 10.7468 99.7267 10.9378 99.7927 11.146C99.8587 11.3541 99.8778 11.5742 99.8486 11.7905V14.6978H98.9566V12.0098C98.9566 11.2905 98.6206 10.9263 97.991 10.9263C97.8378 10.9137 97.6837 10.9347 97.5396 10.9878C97.3954 11.0408 97.2646 11.1247 97.1563 11.2334C97.048 11.3421 96.9648 11.4732 96.9126 11.6173C96.8604 11.7614 96.8404 11.9152 96.854 12.0679V14.6977H95.9628L95.9628 8.43701Z" fill="white"/>
<path d="M105.053 13.4819C104.932 13.8935 104.67 14.2495 104.312 14.4876C103.955 14.7258 103.524 14.8309 103.097 14.7847C102.799 14.7925 102.504 14.7357 102.23 14.6182C101.957 14.5006 101.713 14.3252 101.514 14.1041C101.316 13.8829 101.168 13.6214 101.081 13.3376C100.994 13.0537 100.97 12.7544 101.011 12.4605C100.971 12.1656 100.996 11.8656 101.082 11.581C101.169 11.2963 101.316 11.0335 101.514 10.8105C101.711 10.5874 101.954 10.4092 102.227 10.288C102.499 10.1668 102.795 10.1054 103.093 10.1079C104.349 10.1079 105.107 10.9639 105.107 12.3779V12.688H101.919V12.7378C101.905 12.9031 101.926 13.0694 101.98 13.2261C102.034 13.3829 102.121 13.5266 102.234 13.6481C102.347 13.7695 102.485 13.866 102.637 13.9314C102.79 13.9968 102.955 14.0297 103.121 14.0278C103.334 14.0533 103.55 14.0151 103.742 13.9178C103.933 13.8206 104.091 13.6689 104.196 13.4819L105.053 13.4819ZM101.919 12.0308H104.199C104.211 11.8796 104.19 11.7278 104.139 11.5851C104.088 11.4424 104.007 11.3119 103.903 11.2021C103.798 11.0922 103.672 11.0054 103.531 10.9472C103.391 10.8891 103.24 10.8608 103.088 10.8643C102.934 10.8623 102.781 10.8912 102.638 10.9491C102.495 11.0071 102.366 11.0929 102.257 11.2017C102.148 11.3104 102.062 11.4397 102.004 11.5821C101.946 11.7245 101.917 11.8771 101.919 12.0308H101.919Z" fill="white"/>
</g>
<defs>
<clipPath id="clip0_831_354">
<rect width="120" height="40" fill="white"/>
</clipPath>
</defs>
</svg>
