<svg width="69" height="70" viewBox="0 0 69 70" fill="none" xmlns="http://www.w3.org/2000/svg">
  <circle cx="34.511" cy="34.8667" r="28" fill="#173346"/>
  <path fill-rule="evenodd" clip-rule="evenodd" d="M31.9775 22.378H30.1998C28.5495 22.378 26.9669 23.0336 25.8 24.2005C24.6331 25.3674 23.9775 26.95 23.9775 28.6003V30.1932C23.9775 33.1087 26.0042 35.6332 28.8486 36.266L39.2807 38.5843C39.4782 38.628 39.6549 38.7378 39.7816 38.8955C39.9084 39.0532 39.9775 39.2495 39.9775 39.4518V42.8225C39.9775 43.0582 39.8839 43.2843 39.7172 43.451C39.5505 43.6177 39.3244 43.7114 39.0887 43.7114H30.1998C29.964 43.7114 29.7379 43.6177 29.5712 43.451C29.4045 43.2843 29.3109 43.0582 29.3109 42.8225V41.0447H23.9775V42.8225C23.9775 46.2572 26.7651 49.0447 30.1998 49.0447H31.9775V53.4892H37.3109V49.0447H39.0887C40.7389 49.0447 42.3215 48.3892 43.4884 47.2223C44.6553 46.0554 45.3109 44.4727 45.3109 42.8225V39.4518C45.3109 36.5363 43.2842 34.0118 40.4398 33.3789L30.0078 31.0607C29.8102 31.017 29.6335 30.9072 29.5068 30.7495C29.3801 30.5917 29.311 30.3955 29.3109 30.1932V28.6003C29.3109 28.3645 29.4045 28.1384 29.5712 27.9717C29.7379 27.805 29.964 27.7114 30.1998 27.7114H39.0887C39.3244 27.7114 39.5505 27.805 39.7172 27.9717C39.8839 28.1384 39.9775 28.3645 39.9775 28.6003V30.378H45.3109V28.6003C45.3109 26.95 44.6553 25.3674 43.4884 24.2005C42.3215 23.0336 40.7389 22.378 39.0887 22.378H37.3109V17.9336H31.9775V22.378Z" fill="#F47D01"/>
</svg>