<svg width="135" height="40" viewBox="0 0 135 40" fill="none" xmlns="http://www.w3.org/2000/svg">
<g clip-path="url(#clip0_831_335)">
<path d="M130 0H5C2.23858 0 0 2.23858 0 5V35C0 37.7614 2.23858 40 5 40H130C132.761 40 135 37.7614 135 35V5C135 2.23858 132.761 0 130 0Z" fill="#1C241A"/>
<path d="M130 0.8C131.114 0.8 132.182 1.2425 132.97 2.03015C133.758 2.8178 134.2 3.88609 134.2 5V35C134.2 36.1139 133.758 37.1822 132.97 37.9698C132.182 38.7575 131.114 39.2 130 39.2H5C3.88609 39.2 2.8178 38.7575 2.03015 37.9698C1.2425 37.1822 0.8 36.1139 0.8 35V5C0.8 3.88609 1.2425 2.8178 2.03015 2.03015C2.8178 1.2425 3.88609 0.8 5 0.8H130ZM130 0H5C3.67392 0 2.40215 0.526784 1.46447 1.46447C0.526784 2.40215 0 3.67392 0 5V35C0 36.3261 0.526784 37.5979 1.46447 38.5355C2.40215 39.4732 3.67392 40 5 40H130C131.326 40 132.598 39.4732 133.536 38.5355C134.473 37.5979 135 36.3261 135 35V5C135 3.67392 134.473 2.40215 133.536 1.46447C132.598 0.526784 131.326 0 130 0Z" fill="#A6A6A6"/>
<path d="M47.4243 10.24C47.4407 10.6067 47.3827 10.973 47.2539 11.3167C47.125 11.6604 46.9278 11.9745 46.6743 12.24C46.3902 12.5333 46.0474 12.7633 45.6683 12.9149C45.2892 13.0666 44.8823 13.1365 44.4743 13.12C44.064 13.1291 43.6561 13.054 43.276 12.8992C42.8958 12.7444 42.5515 12.5132 42.2643 12.22C41.6816 11.624 41.3554 10.8235 41.3554 9.99C41.3554 9.15646 41.6816 8.35603 42.2643 7.76C42.7098 7.32468 43.274 7.03073 43.8861 6.91508C44.4981 6.79944 45.1307 6.86725 45.7043 7.11C46.0649 7.25823 46.3866 7.48748 46.6443 7.78L46.1143 8.30999C45.9157 8.07077 45.6641 7.88113 45.3794 7.75615C45.0947 7.63116 44.7848 7.57428 44.4743 7.59C44.0823 7.59271 43.697 7.69139 43.352 7.87741C43.0069 8.06343 42.7127 8.33114 42.495 8.65712C42.2773 8.98311 42.1428 9.35745 42.1032 9.74743C42.0636 10.1374 42.1201 10.5312 42.2678 10.8943C42.4155 11.2573 42.6499 11.5787 42.9505 11.8303C43.2511 12.0819 43.6087 12.2561 43.9921 12.3375C44.3756 12.419 44.7731 12.4053 45.15 12.2977C45.5269 12.19 45.8717 11.9917 46.1543 11.72C46.4598 11.3851 46.6369 10.9529 46.6543 10.5H44.4743V9.78H47.3843C47.4071 9.93236 47.4204 10.086 47.4243 10.24Z" fill="white" stroke="white" stroke-width="0.411304" stroke-miterlimit="10"/>
<path d="M52.0011 7.74H49.3011V9.64H51.7611V10.36H49.3011V12.26H52.0011V13H48.5211V7H52.0011V7.74Z" fill="white" stroke="white" stroke-width="0.411304" stroke-miterlimit="10"/>
<path d="M55.2769 13H54.5069V7.74H52.8269V7H56.9969V7.74H55.2769V13Z" fill="white" stroke="white" stroke-width="0.411304" stroke-miterlimit="10"/>
<path d="M59.9444 13V7H60.7144V13H59.9444Z" fill="white" stroke="white" stroke-width="0.411304" stroke-miterlimit="10"/>
<path d="M64.1296 13H63.3596V7.74H61.6796V7H65.7996V7.74H64.1296V13Z" fill="white" stroke="white" stroke-width="0.411304" stroke-miterlimit="10"/>
<path d="M73.6112 12.22C73.3224 12.509 72.9794 12.7384 72.602 12.8948C72.2245 13.0513 71.8199 13.1318 71.4112 13.1318C71.0026 13.1318 70.598 13.0513 70.2205 12.8948C69.843 12.7384 69.5001 12.509 69.2112 12.22C68.6459 11.619 68.3311 10.8251 68.3311 9.99999C68.3311 9.17493 68.6459 8.38094 69.2112 7.77999C69.4938 7.48279 69.8357 7.24822 70.2146 7.09147C70.5936 6.93471 71.0013 6.85926 71.4112 6.86999C71.8206 6.86352 72.227 6.94091 72.6054 7.09741C72.9837 7.25391 73.326 7.48621 73.6112 7.77999C73.8988 8.07248 74.1248 8.41962 74.2759 8.80092C74.4271 9.18221 74.5003 9.58993 74.4912 9.99999C74.5043 10.4106 74.433 10.8195 74.2816 11.2013C74.1303 11.5832 73.9021 11.9299 73.6112 12.22ZM69.7812 11.72C69.9943 11.9359 70.248 12.1073 70.5279 12.2243C70.8077 12.3413 71.1079 12.4015 71.4112 12.4015C71.7145 12.4015 72.0148 12.3413 72.2946 12.2243C72.5744 12.1073 72.8282 11.9359 73.0412 11.72C73.4727 11.2511 73.7122 10.6372 73.7122 9.99999C73.7122 9.36279 73.4727 8.74886 73.0412 8.27999C72.8282 8.06411 72.5744 7.8927 72.2946 7.77571C72.0148 7.65871 71.7145 7.59847 71.4112 7.59847C71.1079 7.59847 70.8077 7.65871 70.5279 7.77571C70.248 7.8927 69.9943 8.06411 69.7812 8.27999C69.3497 8.74886 69.1102 9.36279 69.1102 9.99999C69.1102 10.6372 69.3497 11.2511 69.7812 11.72Z" fill="white" stroke="white" stroke-width="0.411304" stroke-miterlimit="10"/>
<path d="M75.5772 13V7H76.5072L79.4272 11.67V10.51V7H80.1972V13H79.3972L76.3472 8.11V9.26V13H75.5772Z" fill="white" stroke="white" stroke-width="0.411304" stroke-miterlimit="10"/>
<path d="M68.1404 21.75C67.2979 21.752 66.4748 22.0038 65.7754 22.4735C65.0759 22.9433 64.5315 23.6099 64.2109 24.389C63.8903 25.1682 63.8079 26.0249 63.9743 26.8509C64.1406 27.6769 64.5481 28.435 65.1452 29.0293C65.7424 29.6237 66.5024 30.0277 67.3292 30.1901C68.1559 30.3525 69.0122 30.2661 69.7899 29.9419C70.5675 29.6176 71.2316 29.0701 71.698 28.3684C72.1645 27.6668 72.4124 26.8426 72.4104 26C72.4186 25.438 72.3135 24.88 72.1016 24.3594C71.8896 23.8387 71.5751 23.3661 71.1767 22.9695C70.7783 22.573 70.3041 22.2606 69.7825 22.0511C69.2609 21.8416 68.7024 21.7392 68.1404 21.75ZM68.1404 28.58C67.624 28.6161 67.1087 28.4961 66.6614 28.2354C66.2141 27.9747 65.8556 27.5856 65.6324 27.1185C65.4093 26.6513 65.3318 26.1279 65.4101 25.6162C65.4884 25.1044 65.7188 24.6281 66.0714 24.2491C66.424 23.87 66.8825 23.6058 67.3872 23.4908C67.8919 23.3758 68.4196 23.4152 68.9016 23.6041C69.3836 23.7929 69.7977 24.1224 70.0899 24.5497C70.3822 24.977 70.5392 25.4823 70.5404 26C70.5565 26.328 70.5068 26.6559 70.3941 26.9644C70.2815 27.2729 70.1082 27.5557 69.8846 27.7962C69.6609 28.0366 69.3913 28.2299 69.0918 28.3645C68.7922 28.4991 68.4687 28.5724 68.1404 28.58ZM58.8204 21.75C57.9779 21.752 57.1548 22.0038 56.4554 22.4735C55.7559 22.9433 55.2115 23.6099 54.8909 24.389C54.5703 25.1682 54.4879 26.0249 54.6543 26.8509C54.8206 27.6769 55.2281 28.435 55.8252 29.0293C56.4224 29.6237 57.1824 30.0277 58.0092 30.1901C58.8359 30.3525 59.6922 30.2661 60.4699 29.9419C61.2475 29.6176 61.9116 29.0701 62.378 28.3684C62.8445 27.6668 63.0924 26.8426 63.0904 26C63.0986 25.438 62.9935 24.88 62.7816 24.3594C62.5696 23.8387 62.2551 23.3661 61.8567 22.9695C61.4583 22.573 60.9841 22.2606 60.4625 22.0511C59.9409 21.8416 59.3824 21.7392 58.8204 21.75ZM58.8204 28.58C58.304 28.6161 57.7887 28.4961 57.3414 28.2354C56.8941 27.9747 56.5356 27.5856 56.3124 27.1185C56.0893 26.6513 56.0118 26.1279 56.0901 25.6162C56.1684 25.1044 56.3988 24.6281 56.7514 24.2491C57.104 23.87 57.5625 23.6058 58.0672 23.4908C58.5719 23.3758 59.0996 23.4152 59.5816 23.6041C60.0636 23.7929 60.4777 24.1224 60.7699 24.5497C61.0622 24.977 61.2192 25.4823 61.2204 26C61.2365 26.328 61.1868 26.6559 61.0742 26.9644C60.9615 27.2729 60.7882 27.5557 60.5646 27.7962C60.3409 28.0366 60.0713 28.2299 59.7718 28.3645C59.4722 28.4991 59.1487 28.5724 58.8204 28.58ZM47.7404 23.06V24.86H52.0604C51.9927 25.7078 51.6403 26.5078 51.0604 27.13C50.6271 27.5715 50.1059 27.9172 49.5305 28.1445C48.9552 28.3719 48.3385 28.476 47.7204 28.45C46.4474 28.45 45.2265 27.9443 44.3263 27.0441C43.4261 26.144 42.9204 24.9231 42.9204 23.65C42.9204 22.377 43.4261 21.1561 44.3263 20.2559C45.2265 19.3557 46.4474 18.85 47.7204 18.85C48.9409 18.8319 50.1193 19.2953 51.0004 20.14L52.2704 18.87C51.6744 18.2805 50.9667 17.8159 50.1889 17.5034C49.411 17.1909 48.5786 17.0367 47.7404 17.05C46.8514 17.0154 45.9646 17.1606 45.133 17.477C44.3015 17.7933 43.5424 18.2743 42.9012 18.891C42.26 19.5078 41.7499 20.2476 41.4014 21.0662C41.053 21.8848 40.8734 22.7653 40.8734 23.655C40.8734 24.5447 41.053 25.4252 41.4014 26.2438C41.7499 27.0624 42.26 27.8023 42.9012 28.419C43.5424 29.0357 44.3015 29.5167 45.133 29.833C45.9646 30.1494 46.8514 30.2946 47.7404 30.26C48.5958 30.2942 49.4488 30.147 50.2433 29.8282C51.0378 29.5093 51.7559 29.026 52.3504 28.41C53.4005 27.2564 53.9601 25.7392 53.9104 24.18C53.914 23.8047 53.8839 23.4299 53.8204 23.06H47.7404ZM93.0504 24.46C92.7896 23.6928 92.3019 23.0228 91.6519 22.5389C91.0019 22.0549 90.2202 21.7798 89.4104 21.75C88.8634 21.7489 88.322 21.8601 87.8197 22.0765C87.3173 22.293 86.8647 22.6102 86.4898 23.0085C86.1149 23.4069 85.8257 23.8779 85.64 24.3924C85.4544 24.9069 85.3762 25.4541 85.4104 26C85.4019 26.9129 85.6889 27.804 86.2285 28.5403C86.7682 29.2766 87.5316 29.8185 88.4047 30.0852C89.2778 30.3518 90.2137 30.3289 91.0726 30.0197C91.9316 29.7106 92.6675 29.1319 93.1704 28.37L91.7204 27.37C91.5043 27.7303 91.1977 28.0278 90.8311 28.233C90.4645 28.4383 90.0505 28.5441 89.6304 28.54C89.197 28.5579 88.7683 28.4443 88.4006 28.214C88.033 27.9838 87.7436 27.6478 87.5704 27.25L93.2604 24.9L93.0504 24.46ZM87.2504 25.88C87.2302 25.5694 87.2721 25.2579 87.3737 24.9636C87.4753 24.6694 87.6347 24.3984 87.8423 24.1665C88.05 23.9347 88.3018 23.7465 88.5831 23.6132C88.8644 23.4799 89.1695 23.404 89.4804 23.39C89.8026 23.3703 90.1235 23.4462 90.4027 23.6081C90.682 23.77 90.9073 24.0107 91.0504 24.3L87.2504 25.88ZM82.6304 30H84.5004V17.5H82.6304V30ZM79.5704 22.7H79.5004C79.2211 22.3819 78.8763 22.1278 78.4897 21.9552C78.1031 21.7826 77.6838 21.6956 77.2604 21.7C76.1676 21.753 75.1371 22.2244 74.3824 23.0166C73.6277 23.8088 73.2068 24.8609 73.2068 25.955C73.2068 27.0491 73.6277 28.1013 74.3824 28.8934C75.1371 29.6856 76.1676 30.157 77.2604 30.21C77.6844 30.2185 78.105 30.1333 78.4922 29.9604C78.8794 29.7876 79.2237 29.5313 79.5004 29.21H79.5704V29.82C79.5704 31.45 78.7004 32.32 77.3004 32.32C76.8327 32.3097 76.3787 32.1607 75.9959 31.8919C75.6131 31.623 75.3188 31.2465 75.1504 30.81L73.5304 31.48C73.8299 32.2323 74.3507 32.8759 75.0238 33.3259C75.697 33.7758 76.4908 34.0109 77.3004 34C79.4904 34 81.3004 32.71 81.3004 29.57V22H79.5704V22.7ZM77.4204 28.58C76.7652 28.5392 76.1502 28.2501 75.7007 27.7717C75.2512 27.2933 75.001 26.6615 75.001 26.005C75.001 25.3485 75.2512 24.7168 75.7007 24.2384C76.1502 23.7599 76.7652 23.4709 77.4204 23.43C77.7407 23.4438 78.0548 23.5219 78.3443 23.6597C78.6337 23.7974 78.8925 23.9919 79.1052 24.2317C79.3179 24.4715 79.4803 24.7516 79.5825 25.0554C79.6848 25.3592 79.7249 25.6804 79.7004 26C79.7277 26.3207 79.6897 26.6436 79.5886 26.9492C79.4875 27.2547 79.3255 27.5366 79.1124 27.7778C78.8993 28.019 78.6394 28.2144 78.3486 28.3523C78.0578 28.4902 77.742 28.5677 77.4204 28.58ZM101.81 17.5H97.3304V30H99.2004V25.26H101.81C102.343 25.2983 102.878 25.2264 103.382 25.0487C103.886 24.8711 104.348 24.5915 104.739 24.2275C105.131 23.8635 105.442 23.4228 105.656 22.9328C105.869 22.4429 105.979 21.9143 105.979 21.38C105.979 20.8457 105.869 20.3171 105.656 19.8272C105.442 19.3373 105.131 18.8966 104.739 18.5325C104.348 18.1685 103.886 17.8889 103.382 17.7113C102.878 17.5336 102.343 17.4617 101.81 17.5ZM101.81 23.5H99.2004V19.24H101.85C102.131 19.24 102.41 19.2954 102.669 19.4029C102.929 19.5105 103.165 19.6681 103.364 19.8668C103.562 20.0655 103.72 20.3014 103.828 20.5611C103.935 20.8207 103.99 21.099 103.99 21.38C103.99 21.661 103.935 21.9393 103.828 22.199C103.72 22.4586 103.562 22.6945 103.364 22.8932C103.165 23.0919 102.929 23.2496 102.669 23.3571C102.41 23.4647 102.131 23.52 101.85 23.52L101.81 23.5ZM113.35 21.71C112.669 21.668 111.991 21.8266 111.399 22.166C110.807 22.5055 110.328 23.011 110.02 23.62L111.67 24.31C111.837 24.0094 112.087 23.7635 112.391 23.602C112.694 23.4406 113.038 23.3704 113.38 23.4C113.618 23.3723 113.858 23.3921 114.088 23.4583C114.318 23.5246 114.532 23.6359 114.718 23.7857C114.904 23.9356 115.059 24.121 115.172 24.3312C115.286 24.5414 115.357 24.7722 115.38 25.01V25.13C114.779 24.8139 114.11 24.6492 113.43 24.65C111.65 24.65 109.83 25.65 109.83 27.47C109.848 27.8569 109.943 28.2362 110.11 28.5856C110.277 28.9349 110.513 29.2471 110.803 29.5036C111.093 29.7601 111.432 29.9557 111.799 30.0788C112.166 30.2019 112.554 30.2499 112.94 30.22C113.41 30.246 113.877 30.1467 114.296 29.9323C114.714 29.7179 115.068 29.3961 115.32 29H115.38V30H117.18V25.19C117.18 23 115.52 21.73 113.39 21.73L113.35 21.71ZM113.12 28.56C112.51 28.56 111.66 28.25 111.66 27.5C111.66 26.5 112.72 26.16 113.66 26.16C114.254 26.1454 114.842 26.2904 115.36 26.58C115.298 27.1231 115.04 27.625 114.636 27.9927C114.231 28.3605 113.707 28.5691 113.16 28.58L113.12 28.56ZM123.74 22L121.6 27.42H121.54L119.32 22H117.32L120.65 29.58L118.75 33.79H120.7L125.82 22H123.74ZM106.94 30H108.8V17.5H106.94V30Z" fill="white"/>
<path d="M10.4356 7.54C10.106 7.92962 9.93791 8.43047 9.96558 8.94V31.06C9.93155 31.5704 10.1005 32.0735 10.4356 32.46L10.5056 32.54L22.8956 20.15V19.85L10.5056 7.47L10.4356 7.54Z" fill="url(#paint0_linear_831_335)"/>
<path d="M26.9949 24.28L22.8949 20.15V19.85L26.9949 15.72L27.0849 15.78L31.9949 18.56C33.3949 19.35 33.3949 20.65 31.9949 21.45L27.1049 24.23L26.9949 24.28Z" fill="url(#paint1_linear_831_335)"/>
<path d="M27.1233 24.22L22.9033 20L10.4433 32.46C10.7258 32.7115 11.0875 32.8562 11.4656 32.869C11.8437 32.8818 12.2144 32.7619 12.5133 32.53L27.1233 24.22Z" fill="url(#paint2_linear_831_335)"/>
<path d="M27.1233 15.78L12.5133 7.48C12.2163 7.24491 11.8459 7.12206 11.4673 7.13303C11.0887 7.14401 10.7261 7.28811 10.4433 7.54L22.9033 20L27.1233 15.78Z" fill="url(#paint3_linear_831_335)"/>
<path opacity="0.2" d="M27.0033 24.13L12.5133 32.38C12.2252 32.5974 11.8742 32.715 11.5133 32.715C11.1524 32.715 10.8013 32.5974 10.5133 32.38L10.4433 32.45L10.5133 32.53C10.8013 32.7474 11.1524 32.865 11.5133 32.865C11.8742 32.865 12.2252 32.7474 12.5133 32.53L27.1233 24.22L27.0033 24.13Z" fill="#1C241A"/>
<path opacity="0.12" d="M10.4391 32.32C10.1179 31.9233 9.96053 31.4189 9.99915 30.91V31.06C9.96512 31.5704 10.134 32.0735 10.4691 32.46L10.5391 32.39L10.4391 32.32Z" fill="#1C241A"/>
<path opacity="0.12" d="M32.0079 21.3L27.0079 24.13L27.0979 24.22L32.0079 21.44C32.2977 21.3174 32.5492 21.119 32.7357 20.8656C32.9222 20.6122 33.037 20.3132 33.0679 20C33.0054 20.2846 32.8769 20.5505 32.6928 20.7763C32.5087 21.0021 32.2741 21.1815 32.0079 21.3Z" fill="#1C241A"/>
<path opacity="0.25" d="M12.5173 7.62001L32.0073 18.7C32.2735 18.8185 32.5081 18.9979 32.6922 19.2237C32.8763 19.4495 33.0048 19.7154 33.0673 20C33.0364 19.6869 32.9217 19.3878 32.7351 19.1344C32.5486 18.881 32.2972 18.6826 32.0073 18.56L12.5173 7.48001C11.1273 6.68001 9.97734 7.34001 9.97734 8.94001V9.09001C10.0073 7.49001 11.1273 6.83001 12.5173 7.62001Z" fill="white"/>
</g>
<defs>
<linearGradient id="paint0_linear_831_335" x1="21.7956" y1="8.71" x2="5.01558" y2="25.49" gradientUnits="userSpaceOnUse">
<stop stop-color="#00A0FF"/>
<stop offset="0.01" stop-color="#00A1FF"/>
<stop offset="0.26" stop-color="#00BEFF"/>
<stop offset="0.51" stop-color="#00D2FF"/>
<stop offset="0.76" stop-color="#00DFFF"/>
<stop offset="1" stop-color="#00E3FF"/>
</linearGradient>
<linearGradient id="paint1_linear_831_335" x1="33.8249" y1="20" x2="9.63487" y2="20" gradientUnits="userSpaceOnUse">
<stop stop-color="#FFE000"/>
<stop offset="0.41" stop-color="#FFBD00"/>
<stop offset="0.78" stop-color="#FFA500"/>
<stop offset="1" stop-color="#FF9C00"/>
</linearGradient>
<linearGradient id="paint2_linear_831_335" x1="24.8333" y1="22.3" x2="2.07327" y2="45.05" gradientUnits="userSpaceOnUse">
<stop stop-color="#FF3A44"/>
<stop offset="1" stop-color="#C31162"/>
</linearGradient>
<linearGradient id="paint3_linear_831_335" x1="7.30328" y1="0.18" x2="17.4633" y2="10.34" gradientUnits="userSpaceOnUse">
<stop stop-color="#32A071"/>
<stop offset="0.07" stop-color="#2DA771"/>
<stop offset="0.48" stop-color="#15CF74"/>
<stop offset="0.8" stop-color="#06E775"/>
<stop offset="1" stop-color="#00F076"/>
</linearGradient>
<clipPath id="clip0_831_335">
<rect width="135" height="40" fill="white"/>
</clipPath>
</defs>
</svg>
