<svg width="69" height="70" viewBox="0 0 69 70" fill="none" xmlns="http://www.w3.org/2000/svg">
  <path d="M4.77783 50.7107V3.77734H64.5112V50.7107L34.6445 66.3551L4.77783 50.7107Z" fill="#173346"/>
  <path fill-rule="evenodd" clip-rule="evenodd" d="M29.6668 22.9772C29.6668 21.657 30.1912 20.3909 31.1248 19.4574C32.0583 18.5239 33.3244 17.9994 34.6446 17.9994C35.9648 17.9994 37.2309 18.5239 38.1644 19.4574C39.0979 20.3909 39.6224 21.657 39.6224 22.9772V29.3658H29.6668V22.9772ZM23.9779 29.3658V22.9772C23.9779 20.1482 25.1017 17.4351 27.1021 15.4347C29.1025 13.4344 31.8156 12.3105 34.6446 12.3105C37.4736 12.3105 40.1867 13.4344 42.1871 15.4347C44.1874 17.4351 45.3113 20.1482 45.3113 22.9772V29.3658H48.8668V47.8661H20.4224V29.3658H23.9779Z" fill="#F47D01"/>
</svg>