<svg width="56" height="55" viewBox="0 0 56 55" fill="none" xmlns="http://www.w3.org/2000/svg">
  <g clip-path="url(#clip0_3253_47917)">
    <path d="M46.2936 0H14.4165V17.7604C20.4207 17.7604 25.279 22.5958 25.3019 28.6C25.3019 31.3958 24.2478 34.0771 22.3228 36.0937H28.1665C29.4269 36.0937 30.4582 37.125 30.4582 38.3854V50.4167H55.6665V9.37292L46.2936 0ZM44.2082 35.5208H36.1873V30.9375H44.2082V35.5208ZM44.2082 26.3542H28.1665V21.7708H44.2082V26.3542ZM44.2082 17.1875H35.0415V12.6042H44.2082V17.1875Z" fill="#173346"/>
    <path d="M21.8644 39.5312H17.2811V35.5208C21.0853 33.9396 22.8728 29.5854 21.2915 25.7812C19.7103 21.9771 15.3561 20.1896 11.5519 21.7708C7.74775 23.3521 5.96025 27.7062 7.5415 31.5104C8.29775 33.3208 9.7415 34.7646 11.5519 35.5208V39.5312H6.96859C3.48525 39.5312 0.666504 42.35 0.666504 45.8333V47.5521H28.1665V45.8333C28.1665 42.35 25.3478 39.5312 21.8644 39.5312ZM1.81234 52.7083C1.81234 53.9687 2.84359 55 4.104 55H24.729C25.9894 55 27.0207 53.9687 27.0207 52.7083V50.4167H1.81234V52.7083Z" fill="#F47D01"/>
  </g>
  <defs>
    <clipPath id="clip0_3253_47917">
      <rect width="55" height="55" fill="white" transform="translate(0.666504)"/>
    </clipPath>
  </defs>
</svg>