<svg width="64" height="64" viewBox="0 0 64 64" fill="none" xmlns="http://www.w3.org/2000/svg">
  <path fill-rule="evenodd" clip-rule="evenodd" d="M16.0001 23.9998C16.0001 19.7564 17.6858 15.6867 20.6864 12.6861C23.687 9.68555 27.7566 7.99984 32.0001 7.99984C36.2435 7.99984 40.3132 9.68555 43.3138 12.6861C46.3144 15.6867 48.0001 19.7564 48.0001 23.9998H53.3334C53.3334 18.3419 51.0858 12.9157 47.085 8.91489C43.0843 4.91412 37.658 2.6665 32.0001 2.6665C26.3421 2.6665 20.9159 4.91412 16.9151 8.91489C12.9144 12.9157 10.6667 18.3419 10.6667 23.9998H16.0001ZM53.3334 45.3332H48.0001C48.0001 47.4549 47.1572 49.4897 45.6569 50.99C44.1566 52.4903 42.1218 53.3332 40.0001 53.3332V58.6665C43.5363 58.6665 46.9277 57.2617 49.4282 54.7613C51.9287 52.2608 53.3334 48.8694 53.3334 45.3332Z" fill="#173346"/>
  <path fill-rule="evenodd" clip-rule="evenodd" d="M2.66675 24H16.0001V45.3333H2.66675V24ZM48.0001 24H61.3334V45.3333H48.0001V24ZM40.0001 50.6667H24.0001V61.3333H40.0001V50.6667Z" fill="#F47D01"/>
</svg>